<?xml version="1.0" encoding="UTF-8" standalone="no"?>
<!DOCTYPE svg PUBLIC "-//W3C//DTD SVG 1.1//EN"
 "http://www.w3.org/Graphics/SVG/1.1/DTD/svg11.dtd">
<!-- Generated by graphviz version 2.38.0 (20140413.2041)
 -->
<!-- Title: G Pages: 1 -->
<svg width="648pt" height="474pt"
 viewBox="0.00 0.00 647.50 474.00" xmlns="http://www.w3.org/2000/svg" xmlns:xlink="http://www.w3.org/1999/xlink">
<g id="graph0" class="graph" transform="scale(1 1) rotate(0) translate(4 470)">
<title>G</title>
<polygon fill="white" stroke="none" points="-4,4 -4,-470 643.5,-470 643.5,4 -4,4"/>
<!-- 134512915 -->
<g id="node1" class="node"><title>134512915</title>
<text text-anchor="start" x="211" y="-448.8" font-family="Ubuntu Mono" font-size="9.00">sub_8048113 @ 8048113</text>
<text text-anchor="start" x="211" y="-438.8" font-family="Ubuntu Mono" font-size="9.00">08048113 [01] </text>
<text text-anchor="start" x="275" y="-438.8" font-family="Ubuntu Mono" font-size="9.00" fill="#0000ff">push</text>
<text text-anchor="start" x="294" y="-438.8" font-family="Ubuntu Mono" font-size="9.00"> &#160;</text>
<text text-anchor="start" x="304" y="-438.8" font-family="Ubuntu Mono" font-size="9.00" fill="#008000">ebp</text>
<text text-anchor="start" x="318" y="-438.8" font-family="Ubuntu Mono" font-size="9.00"> </text>
<text text-anchor="start" x="211" y="-427.8" font-family="Ubuntu Mono" font-size="9.00">08048114 [02] </text>
<text text-anchor="start" x="275" y="-427.8" font-family="Ubuntu Mono" font-size="9.00" fill="#0000ff">mov</text>
<text text-anchor="start" x="289" y="-427.8" font-family="Ubuntu Mono" font-size="9.00"> &#160;&#160;</text>
<text text-anchor="start" x="303" y="-427.8" font-family="Ubuntu Mono" font-size="9.00" fill="#008000">ebp</text>
<text text-anchor="start" x="317" y="-427.8" font-family="Ubuntu Mono" font-size="9.00">, </text>
<text text-anchor="start" x="327" y="-427.8" font-family="Ubuntu Mono" font-size="9.00" fill="#008000">esp</text>
<text text-anchor="start" x="341" y="-427.8" font-family="Ubuntu Mono" font-size="9.00"> </text>
<text text-anchor="start" x="211" y="-416.8" font-family="Ubuntu Mono" font-size="9.00">08048116 [03] </text>
<text text-anchor="start" x="275" y="-416.8" font-family="Ubuntu Mono" font-size="9.00" fill="#0000ff">sub</text>
<text text-anchor="start" x="289" y="-416.8" font-family="Ubuntu Mono" font-size="9.00"> &#160;&#160;</text>
<text text-anchor="start" x="303" y="-416.8" font-family="Ubuntu Mono" font-size="9.00" fill="#008000">esp</text>
<text text-anchor="start" x="317" y="-416.8" font-family="Ubuntu Mono" font-size="9.00">, </text>
<text text-anchor="start" x="327" y="-416.8" font-family="Ubuntu Mono" font-size="9.00" fill="#666666">0x4</text>
<text text-anchor="start" x="341" y="-416.8" font-family="Ubuntu Mono" font-size="9.00"> </text>
<text text-anchor="start" x="211" y="-405.8" font-family="Ubuntu Mono" font-size="9.00">08048119 [07] </text>
<text text-anchor="start" x="275" y="-405.8" font-family="Ubuntu Mono" font-size="9.00" fill="#0000ff">mov</text>
<text text-anchor="start" x="289" y="-405.8" font-family="Ubuntu Mono" font-size="9.00"> &#160;&#160;</text>
<text text-anchor="start" x="303" y="-405.8" font-family="Ubuntu Mono" font-size="9.00" fill="#b00040">dword</text>
<text text-anchor="start" x="326" y="-405.8" font-family="Ubuntu Mono" font-size="9.00"> </text>
<text text-anchor="start" x="331" y="-405.8" font-family="Ubuntu Mono" font-size="9.00" fill="#19177c">ptr</text>
<text text-anchor="start" x="345" y="-405.8" font-family="Ubuntu Mono" font-size="9.00"> [</text>
<text text-anchor="start" x="355" y="-405.8" font-family="Ubuntu Mono" font-size="9.00" fill="#008000">ebp</text>
<text text-anchor="start" x="369" y="-405.8" font-family="Ubuntu Mono" font-size="9.00" fill="#666666">&#45;0x4</text>
<text text-anchor="start" x="388" y="-405.8" font-family="Ubuntu Mono" font-size="9.00">], </text>
<text text-anchor="start" x="402" y="-405.8" font-family="Ubuntu Mono" font-size="9.00" fill="#666666">0x0</text>
<text text-anchor="start" x="416" y="-405.8" font-family="Ubuntu Mono" font-size="9.00"> </text>
<text text-anchor="start" x="211" y="-394.8" font-family="Ubuntu Mono" font-size="9.00">08048120 [02] </text>
<text text-anchor="start" x="275" y="-394.8" font-family="Ubuntu Mono" font-size="9.00" fill="#0000ff">jmp</text>
<text text-anchor="start" x="289" y="-394.8" font-family="Ubuntu Mono" font-size="9.00"> &#160;&#160;</text>
<text text-anchor="start" x="303" y="-394.8" font-family="Ubuntu Mono" font-size="9.00" fill="#666666">0x8048126</text>
<text text-anchor="start" x="344" y="-394.8" font-family="Ubuntu Mono" font-size="9.00"> </text>
<polygon fill="none" stroke="orange" points="209,-386.5 209,-461.5 423,-461.5 423,-386.5 209,-386.5"/>
</g>
<!-- 134512934 -->
<g id="node2" class="node"><title>134512934</title>
<text text-anchor="start" x="208" y="-329.3" font-family="Ubuntu Mono" font-size="9.00">loc_8048126</text>
<text text-anchor="start" x="208" y="-319.3" font-family="Ubuntu Mono" font-size="9.00">08048126 [03] </text>
<text text-anchor="start" x="272" y="-319.3" font-family="Ubuntu Mono" font-size="9.00" fill="#0000ff">mov</text>
<text text-anchor="start" x="286" y="-319.3" font-family="Ubuntu Mono" font-size="9.00"> &#160;&#160;&#160;</text>
<text text-anchor="start" x="305" y="-319.3" font-family="Ubuntu Mono" font-size="9.00" fill="#008000">edx</text>
<text text-anchor="start" x="319" y="-319.3" font-family="Ubuntu Mono" font-size="9.00">, </text>
<text text-anchor="start" x="329" y="-319.3" font-family="Ubuntu Mono" font-size="9.00" fill="#b00040">dword</text>
<text text-anchor="start" x="352" y="-319.3" font-family="Ubuntu Mono" font-size="9.00"> </text>
<text text-anchor="start" x="357" y="-319.3" font-family="Ubuntu Mono" font-size="9.00" fill="#19177c">ptr</text>
<text text-anchor="start" x="371" y="-319.3" font-family="Ubuntu Mono" font-size="9.00"> [</text>
<text text-anchor="start" x="381" y="-319.3" font-family="Ubuntu Mono" font-size="9.00" fill="#008000">ebp</text>
<text text-anchor="start" x="395" y="-319.3" font-family="Ubuntu Mono" font-size="9.00" fill="#666666">&#45;0x4</text>
<text text-anchor="start" x="414" y="-319.3" font-family="Ubuntu Mono" font-size="9.00">] </text>
<text text-anchor="start" x="208" y="-308.3" font-family="Ubuntu Mono" font-size="9.00">08048129 [03] </text>
<text text-anchor="start" x="272" y="-308.3" font-family="Ubuntu Mono" font-size="9.00" fill="#0000ff">mov</text>
<text text-anchor="start" x="286" y="-308.3" font-family="Ubuntu Mono" font-size="9.00"> &#160;&#160;&#160;</text>
<text text-anchor="start" x="305" y="-308.3" font-family="Ubuntu Mono" font-size="9.00" fill="#008000">eax</text>
<text text-anchor="start" x="319" y="-308.3" font-family="Ubuntu Mono" font-size="9.00">, </text>
<text text-anchor="start" x="329" y="-308.3" font-family="Ubuntu Mono" font-size="9.00" fill="#b00040">dword</text>
<text text-anchor="start" x="352" y="-308.3" font-family="Ubuntu Mono" font-size="9.00"> </text>
<text text-anchor="start" x="357" y="-308.3" font-family="Ubuntu Mono" font-size="9.00" fill="#19177c">ptr</text>
<text text-anchor="start" x="371" y="-308.3" font-family="Ubuntu Mono" font-size="9.00"> [</text>
<text text-anchor="start" x="381" y="-308.3" font-family="Ubuntu Mono" font-size="9.00" fill="#008000">ebp</text>
<text text-anchor="start" x="395" y="-308.3" font-family="Ubuntu Mono" font-size="9.00" fill="#666666">+0x8</text>
<text text-anchor="start" x="414" y="-308.3" font-family="Ubuntu Mono" font-size="9.00">] </text>
<text text-anchor="start" x="208" y="-297.3" font-family="Ubuntu Mono" font-size="9.00">0804812c [02] </text>
<text text-anchor="start" x="272" y="-297.3" font-family="Ubuntu Mono" font-size="9.00" fill="#0000ff">add</text>
<text text-anchor="start" x="286" y="-297.3" font-family="Ubuntu Mono" font-size="9.00"> &#160;&#160;&#160;</text>
<text text-anchor="start" x="305" y="-297.3" font-family="Ubuntu Mono" font-size="9.00" fill="#008000">eax</text>
<text text-anchor="start" x="319" y="-297.3" font-family="Ubuntu Mono" font-size="9.00">, </text>
<text text-anchor="start" x="329" y="-297.3" font-family="Ubuntu Mono" font-size="9.00" fill="#008000">edx</text>
<text text-anchor="start" x="343" y="-297.3" font-family="Ubuntu Mono" font-size="9.00"> </text>
<text text-anchor="start" x="208" y="-286.3" font-family="Ubuntu Mono" font-size="9.00">0804812e [03] </text>
<text text-anchor="start" x="272" y="-286.3" font-family="Ubuntu Mono" font-size="9.00" fill="#0000ff">movzx</text>
<text text-anchor="start" x="295" y="-286.3" font-family="Ubuntu Mono" font-size="9.00"> &#160;</text>
<text text-anchor="start" x="305" y="-286.3" font-family="Ubuntu Mono" font-size="9.00" fill="#008000">edx</text>
<text text-anchor="start" x="319" y="-286.3" font-family="Ubuntu Mono" font-size="9.00">, </text>
<text text-anchor="start" x="329" y="-286.3" font-family="Ubuntu Mono" font-size="9.00" fill="#b00040">byte</text>
<text text-anchor="start" x="348" y="-286.3" font-family="Ubuntu Mono" font-size="9.00"> </text>
<text text-anchor="start" x="353" y="-286.3" font-family="Ubuntu Mono" font-size="9.00" fill="#19177c">ptr</text>
<text text-anchor="start" x="367" y="-286.3" font-family="Ubuntu Mono" font-size="9.00"> [</text>
<text text-anchor="start" x="377" y="-286.3" font-family="Ubuntu Mono" font-size="9.00" fill="#008000">eax</text>
<text text-anchor="start" x="391" y="-286.3" font-family="Ubuntu Mono" font-size="9.00">] </text>
<text text-anchor="start" x="208" y="-275.3" font-family="Ubuntu Mono" font-size="9.00">08048131 [03] </text>
<text text-anchor="start" x="272" y="-275.3" font-family="Ubuntu Mono" font-size="9.00" fill="#0000ff">mov</text>
<text text-anchor="start" x="286" y="-275.3" font-family="Ubuntu Mono" font-size="9.00"> &#160;&#160;&#160;</text>
<text text-anchor="start" x="305" y="-275.3" font-family="Ubuntu Mono" font-size="9.00" fill="#008000">ecx</text>
<text text-anchor="start" x="319" y="-275.3" font-family="Ubuntu Mono" font-size="9.00">, </text>
<text text-anchor="start" x="329" y="-275.3" font-family="Ubuntu Mono" font-size="9.00" fill="#b00040">dword</text>
<text text-anchor="start" x="352" y="-275.3" font-family="Ubuntu Mono" font-size="9.00"> </text>
<text text-anchor="start" x="357" y="-275.3" font-family="Ubuntu Mono" font-size="9.00" fill="#19177c">ptr</text>
<text text-anchor="start" x="371" y="-275.3" font-family="Ubuntu Mono" font-size="9.00"> [</text>
<text text-anchor="start" x="381" y="-275.3" font-family="Ubuntu Mono" font-size="9.00" fill="#008000">ebp</text>
<text text-anchor="start" x="395" y="-275.3" font-family="Ubuntu Mono" font-size="9.00" fill="#666666">&#45;0x4</text>
<text text-anchor="start" x="414" y="-275.3" font-family="Ubuntu Mono" font-size="9.00">] </text>
<text text-anchor="start" x="208" y="-264.3" font-family="Ubuntu Mono" font-size="9.00">08048134 [03] </text>
<text text-anchor="start" x="272" y="-264.3" font-family="Ubuntu Mono" font-size="9.00" fill="#0000ff">mov</text>
<text text-anchor="start" x="286" y="-264.3" font-family="Ubuntu Mono" font-size="9.00"> &#160;&#160;&#160;</text>
<text text-anchor="start" x="305" y="-264.3" font-family="Ubuntu Mono" font-size="9.00" fill="#008000">eax</text>
<text text-anchor="start" x="319" y="-264.3" font-family="Ubuntu Mono" font-size="9.00">, </text>
<text text-anchor="start" x="329" y="-264.3" font-family="Ubuntu Mono" font-size="9.00" fill="#b00040">dword</text>
<text text-anchor="start" x="352" y="-264.3" font-family="Ubuntu Mono" font-size="9.00"> </text>
<text text-anchor="start" x="357" y="-264.3" font-family="Ubuntu Mono" font-size="9.00" fill="#19177c">ptr</text>
<text text-anchor="start" x="371" y="-264.3" font-family="Ubuntu Mono" font-size="9.00"> [</text>
<text text-anchor="start" x="381" y="-264.3" font-family="Ubuntu Mono" font-size="9.00" fill="#008000">ebp</text>
<text text-anchor="start" x="395" y="-264.3" font-family="Ubuntu Mono" font-size="9.00" fill="#666666">+0xc</text>
<text text-anchor="start" x="414" y="-264.3" font-family="Ubuntu Mono" font-size="9.00">] </text>
<text text-anchor="start" x="208" y="-253.3" font-family="Ubuntu Mono" font-size="9.00">08048137 [02] </text>
<text text-anchor="start" x="272" y="-253.3" font-family="Ubuntu Mono" font-size="9.00" fill="#0000ff">add</text>
<text text-anchor="start" x="286" y="-253.3" font-family="Ubuntu Mono" font-size="9.00"> &#160;&#160;&#160;</text>
<text text-anchor="start" x="305" y="-253.3" font-family="Ubuntu Mono" font-size="9.00" fill="#008000">eax</text>
<text text-anchor="start" x="319" y="-253.3" font-family="Ubuntu Mono" font-size="9.00">, </text>
<text text-anchor="start" x="329" y="-253.3" font-family="Ubuntu Mono" font-size="9.00" fill="#008000">ecx</text>
<text text-anchor="start" x="343" y="-253.3" font-family="Ubuntu Mono" font-size="9.00"> </text>
<text text-anchor="start" x="208" y="-242.3" font-family="Ubuntu Mono" font-size="9.00">08048139 [03] </text>
<text text-anchor="start" x="272" y="-242.3" font-family="Ubuntu Mono" font-size="9.00" fill="#0000ff">movzx</text>
<text text-anchor="start" x="295" y="-242.3" font-family="Ubuntu Mono" font-size="9.00"> &#160;</text>
<text text-anchor="start" x="305" y="-242.3" font-family="Ubuntu Mono" font-size="9.00" fill="#008000">eax</text>
<text text-anchor="start" x="319" y="-242.3" font-family="Ubuntu Mono" font-size="9.00">, </text>
<text text-anchor="start" x="329" y="-242.3" font-family="Ubuntu Mono" font-size="9.00" fill="#b00040">byte</text>
<text text-anchor="start" x="348" y="-242.3" font-family="Ubuntu Mono" font-size="9.00"> </text>
<text text-anchor="start" x="353" y="-242.3" font-family="Ubuntu Mono" font-size="9.00" fill="#19177c">ptr</text>
<text text-anchor="start" x="367" y="-242.3" font-family="Ubuntu Mono" font-size="9.00"> [</text>
<text text-anchor="start" x="377" y="-242.3" font-family="Ubuntu Mono" font-size="9.00" fill="#008000">eax</text>
<text text-anchor="start" x="391" y="-242.3" font-family="Ubuntu Mono" font-size="9.00">] </text>
<text text-anchor="start" x="208" y="-231.3" font-family="Ubuntu Mono" font-size="9.00">0804813c [02] </text>
<text text-anchor="start" x="272" y="-231.3" font-family="Ubuntu Mono" font-size="9.00" fill="#0000ff">cmp</text>
<text text-anchor="start" x="286" y="-231.3" font-family="Ubuntu Mono" font-size="9.00"> &#160;&#160;&#160;</text>
<text text-anchor="start" x="305" y="-231.3" font-family="Ubuntu Mono" font-size="9.00" fill="#008000">dl</text>
<text text-anchor="start" x="315" y="-231.3" font-family="Ubuntu Mono" font-size="9.00">, </text>
<text text-anchor="start" x="325" y="-231.3" font-family="Ubuntu Mono" font-size="9.00" fill="#008000">al</text>
<text text-anchor="start" x="335" y="-231.3" font-family="Ubuntu Mono" font-size="9.00"> </text>
<text text-anchor="start" x="208" y="-220.3" font-family="Ubuntu Mono" font-size="9.00">0804813e [02] </text>
<text text-anchor="start" x="272" y="-220.3" font-family="Ubuntu Mono" font-size="9.00" fill="#0000ff">jne</text>
<text text-anchor="start" x="286" y="-220.3" font-family="Ubuntu Mono" font-size="9.00"> &#160;&#160;&#160;</text>
<text text-anchor="start" x="305" y="-220.3" font-family="Ubuntu Mono" font-size="9.00" fill="#666666">0x8048146</text>
<text text-anchor="start" x="346" y="-220.3" font-family="Ubuntu Mono" font-size="9.00"> </text>
<polygon fill="none" stroke="black" points="206,-211.5 206,-341.5 426,-341.5 426,-211.5 206,-211.5"/>
</g>
<!-- 134512915&#45;&gt;134512934 -->
<g id="edge1" class="edge"><title>134512915&#45;&gt;134512934</title>
<path fill="none" stroke="blue" stroke-width="0.5" d="M316,-381.695C316,-372.511 316,-362.499 316,-352.431"/>
<polygon fill="blue" stroke="blue" stroke-width="0.5" points="316,-346.162 318.7,-352.162 316,-349.162 316,-352.162 316,-352.162 316,-352.162 316,-349.162 313.3,-352.162 316,-346.162 316,-346.162"/>
</g>
<!-- 134512960 -->
<g id="node4" class="node"><title>134512960</title>
<text text-anchor="start" x="211" y="-154.3" font-family="Ubuntu Mono" font-size="9.00">loc_8048140</text>
<text text-anchor="start" x="211" y="-144.3" font-family="Ubuntu Mono" font-size="9.00">08048140 [04] </text>
<text text-anchor="start" x="275" y="-144.3" font-family="Ubuntu Mono" font-size="9.00" fill="#0000ff">cmp</text>
<text text-anchor="start" x="289" y="-144.3" font-family="Ubuntu Mono" font-size="9.00"> &#160;</text>
<text text-anchor="start" x="299" y="-144.3" font-family="Ubuntu Mono" font-size="9.00" fill="#b00040">dword</text>
<text text-anchor="start" x="322" y="-144.3" font-family="Ubuntu Mono" font-size="9.00"> </text>
<text text-anchor="start" x="327" y="-144.3" font-family="Ubuntu Mono" font-size="9.00" fill="#19177c">ptr</text>
<text text-anchor="start" x="341" y="-144.3" font-family="Ubuntu Mono" font-size="9.00"> [</text>
<text text-anchor="start" x="351" y="-144.3" font-family="Ubuntu Mono" font-size="9.00" fill="#008000">ebp</text>
<text text-anchor="start" x="365" y="-144.3" font-family="Ubuntu Mono" font-size="9.00" fill="#666666">&#45;0x4</text>
<text text-anchor="start" x="384" y="-144.3" font-family="Ubuntu Mono" font-size="9.00">], </text>
<text text-anchor="start" x="398" y="-144.3" font-family="Ubuntu Mono" font-size="9.00" fill="#666666">0x1f</text>
<text text-anchor="start" x="417" y="-144.3" font-family="Ubuntu Mono" font-size="9.00"> </text>
<text text-anchor="start" x="211" y="-133.3" font-family="Ubuntu Mono" font-size="9.00">08048144 [02] </text>
<text text-anchor="start" x="275" y="-133.3" font-family="Ubuntu Mono" font-size="9.00" fill="#0000ff">jle</text>
<text text-anchor="start" x="289" y="-133.3" font-family="Ubuntu Mono" font-size="9.00"> &#160;</text>
<text text-anchor="start" x="299" y="-133.3" font-family="Ubuntu Mono" font-size="9.00" fill="#666666">0x8048122</text>
<text text-anchor="start" x="340" y="-133.3" font-family="Ubuntu Mono" font-size="9.00"> </text>
<polygon fill="none" stroke="black" points="208.5,-124.5 208.5,-166.5 423.5,-166.5 423.5,-124.5 208.5,-124.5"/>
</g>
<!-- 134512934&#45;&gt;134512960 -->
<g id="edge3" class="edge"><title>134512934&#45;&gt;134512960</title>
<path fill="none" stroke="red" stroke-width="0.5" d="M316,-206.845C316,-196.481 316,-186.26 316,-177.26"/>
<polygon fill="red" stroke="red" stroke-width="0.5" points="316,-171.237 318.7,-177.236 316,-174.237 316,-177.237 316,-177.237 316,-177.237 316,-174.237 313.3,-177.237 316,-171.237 316,-171.237"/>
</g>
<!-- 134512966 -->
<g id="node5" class="node"><title>134512966</title>
<text text-anchor="start" x="409" y="-66.8" font-family="Ubuntu Mono" font-size="9.00">loc_8048146</text>
<text text-anchor="start" x="409" y="-56.8" font-family="Ubuntu Mono" font-size="9.00">08048146 [04] </text>
<text text-anchor="start" x="473" y="-56.8" font-family="Ubuntu Mono" font-size="9.00" fill="#0000ff">cmp</text>
<text text-anchor="start" x="487" y="-56.8" font-family="Ubuntu Mono" font-size="9.00"> &#160;&#160;&#160;</text>
<text text-anchor="start" x="506" y="-56.8" font-family="Ubuntu Mono" font-size="9.00" fill="#b00040">dword</text>
<text text-anchor="start" x="529" y="-56.8" font-family="Ubuntu Mono" font-size="9.00"> </text>
<text text-anchor="start" x="534" y="-56.8" font-family="Ubuntu Mono" font-size="9.00" fill="#19177c">ptr</text>
<text text-anchor="start" x="548" y="-56.8" font-family="Ubuntu Mono" font-size="9.00"> [</text>
<text text-anchor="start" x="558" y="-56.8" font-family="Ubuntu Mono" font-size="9.00" fill="#008000">ebp</text>
<text text-anchor="start" x="572" y="-56.8" font-family="Ubuntu Mono" font-size="9.00" fill="#666666">&#45;0x4</text>
<text text-anchor="start" x="591" y="-56.8" font-family="Ubuntu Mono" font-size="9.00">], </text>
<text text-anchor="start" x="605" y="-56.8" font-family="Ubuntu Mono" font-size="9.00" fill="#666666">0x1f</text>
<text text-anchor="start" x="624" y="-56.8" font-family="Ubuntu Mono" font-size="9.00"> </text>
<text text-anchor="start" x="409" y="-45.8" font-family="Ubuntu Mono" font-size="9.00">0804814a [03] </text>
<text text-anchor="start" x="473" y="-45.8" font-family="Ubuntu Mono" font-size="9.00" fill="#0000ff">setg</text>
<text text-anchor="start" x="492" y="-45.8" font-family="Ubuntu Mono" font-size="9.00"> &#160;&#160;</text>
<text text-anchor="start" x="506" y="-45.8" font-family="Ubuntu Mono" font-size="9.00" fill="#008000">al</text>
<text text-anchor="start" x="516" y="-45.8" font-family="Ubuntu Mono" font-size="9.00"> </text>
<text text-anchor="start" x="409" y="-34.8" font-family="Ubuntu Mono" font-size="9.00">0804814d [03] </text>
<text text-anchor="start" x="473" y="-34.8" font-family="Ubuntu Mono" font-size="9.00" fill="#0000ff">movzx</text>
<text text-anchor="start" x="496" y="-34.8" font-family="Ubuntu Mono" font-size="9.00"> &#160;</text>
<text text-anchor="start" x="506" y="-34.8" font-family="Ubuntu Mono" font-size="9.00" fill="#008000">eax</text>
<text text-anchor="start" x="520" y="-34.8" font-family="Ubuntu Mono" font-size="9.00">, </text>
<text text-anchor="start" x="530" y="-34.8" font-family="Ubuntu Mono" font-size="9.00" fill="#008000">al</text>
<text text-anchor="start" x="540" y="-34.8" font-family="Ubuntu Mono" font-size="9.00"> </text>
<text text-anchor="start" x="409" y="-23.8" font-family="Ubuntu Mono" font-size="9.00">08048150 [01] </text>
<text text-anchor="start" x="473" y="-23.8" font-family="Ubuntu Mono" font-size="9.00" fill="#0000ff">leave</text>
<text text-anchor="start" x="496" y="-23.8" font-family="Ubuntu Mono" font-size="9.00"> &#160;</text>
<text text-anchor="start" x="409" y="-12.8" font-family="Ubuntu Mono" font-size="9.00">08048151 [01] </text>
<text text-anchor="start" x="473" y="-12.8" font-family="Ubuntu Mono" font-size="9.00" fill="#0000ff">ret</text>
<text text-anchor="start" x="487" y="-12.8" font-family="Ubuntu Mono" font-size="9.00"> &#160;&#160;&#160;</text>
<polygon fill="none" stroke="gray" points="407,-4.5 407,-79.5 631,-79.5 631,-4.5 407,-4.5"/>
</g>
<!-- 134512934&#45;&gt;134512966 -->
<g id="edge4" class="edge"><title>134512934&#45;&gt;134512966</title>
<path fill="none" stroke="darkgreen" stroke-width="0.5" d="M434.288,-210.093C448.993,-198.458 462.777,-185.394 474,-171 492.304,-147.526 503.502,-116.037 510.15,-90.1659"/>
<polygon fill="darkgreen" stroke="darkgreen" stroke-width="0.5" points="511.662,-84.0591 512.841,-90.5322 510.941,-86.9711 510.22,-89.8831 510.22,-89.8831 510.22,-89.8831 510.941,-86.9711 507.599,-89.234 511.662,-84.0591 511.662,-84.0591"/>
</g>
<!-- 134512930 -->
<g id="node3" class="node"><title>134512930</title>
<text text-anchor="start" x="10" y="-44.8" font-family="Ubuntu Mono" font-size="9.00">loc_8048122</text>
<text text-anchor="start" x="10" y="-34.8" font-family="Ubuntu Mono" font-size="9.00">08048122 [04] </text>
<text text-anchor="start" x="74" y="-34.8" font-family="Ubuntu Mono" font-size="9.00" fill="#0000ff">add</text>
<text text-anchor="start" x="88" y="-34.8" font-family="Ubuntu Mono" font-size="9.00"> &#160;</text>
<text text-anchor="start" x="98" y="-34.8" font-family="Ubuntu Mono" font-size="9.00" fill="#b00040">dword</text>
<text text-anchor="start" x="121" y="-34.8" font-family="Ubuntu Mono" font-size="9.00"> </text>
<text text-anchor="start" x="126" y="-34.8" font-family="Ubuntu Mono" font-size="9.00" fill="#19177c">ptr</text>
<text text-anchor="start" x="140" y="-34.8" font-family="Ubuntu Mono" font-size="9.00"> [</text>
<text text-anchor="start" x="150" y="-34.8" font-family="Ubuntu Mono" font-size="9.00" fill="#008000">ebp</text>
<text text-anchor="start" x="164" y="-34.8" font-family="Ubuntu Mono" font-size="9.00" fill="#666666">&#45;0x4</text>
<text text-anchor="start" x="183" y="-34.8" font-family="Ubuntu Mono" font-size="9.00">], </text>
<text text-anchor="start" x="197" y="-34.8" font-family="Ubuntu Mono" font-size="9.00" fill="#666666">0x1</text>
<text text-anchor="start" x="211" y="-34.8" font-family="Ubuntu Mono" font-size="9.00"> </text>
<polygon fill="none" stroke="black" points="8,-26.5 8,-57.5 218,-57.5 218,-26.5 8,-26.5"/>
</g>
<!-- 134512930&#45;&gt;134512934 -->
<g id="edge2" class="edge"><title>134512930&#45;&gt;134512934</title>
<path fill="none" stroke="blue" stroke-width="0.5" d="M115.621,-62.2063C120.096,-88.985 131.348,-137.962 157,-171 167.194,-184.129 179.524,-196.134 192.756,-206.95"/>
<polygon fill="blue" stroke="blue" stroke-width="0.5" points="197.67,-210.881 191.298,-209.241 195.327,-209.007 192.985,-207.133 192.985,-207.133 192.985,-207.133 195.327,-209.007 194.671,-205.024 197.67,-210.881 197.67,-210.881"/>
</g>
<!-- 134512960&#45;&gt;134512930 -->
<g id="edge5" class="edge"><title>134512960&#45;&gt;134512930</title>
<path fill="none" stroke="darkgreen" stroke-width="0.5" d="M266.859,-119.93C233.25,-103.125 189.092,-81.046 156.707,-64.8534"/>
<polygon fill="darkgreen" stroke="darkgreen" stroke-width="0.5" points="151.209,-62.1044 157.783,-62.3728 153.892,-63.4461 156.575,-64.7877 156.575,-64.7877 156.575,-64.7877 153.892,-63.4461 155.368,-67.2027 151.209,-62.1044 151.209,-62.1044"/>
</g>
<!-- 134512960&#45;&gt;134512966 -->
<g id="edge6" class="edge"><title>134512960&#45;&gt;134512966</title>
<path fill="none" stroke="red" stroke-width="0.5" d="M365.141,-119.93C385.02,-109.99 408.59,-98.205 431.231,-86.8844"/>
<polygon fill="red" stroke="red" stroke-width="0.5" points="436.656,-84.1719 432.497,-89.2702 433.973,-85.5136 431.29,-86.8552 431.29,-86.8552 431.29,-86.8552 433.973,-85.5136 430.082,-84.4403 436.656,-84.1719 436.656,-84.1719"/>
</g>
</g>
</svg>
